ffmpeg started on 2025-06-07 at 17:52:10
Report written to "D:\Convert\FFMetrics\reports\psnr_report-6.txt"
Log level: 32
Command line:
ffmpeg -hide_banner -nostdin -i "G:\\\xc0\xed\xe8\xec\xe5\\\xce\xed\xe3\xee\xe8\xed\xe3\xe8\\!_36_\xce\xf1\xe5\xed\xfc_2024\\DreamCast\\\xdd\xe9, \xd2\xee\xec\xe1\xee!\\\xd2\xc2-2\\[DC] Tonbo 2 - 09_Telegram_HEVC.mkv" -i "G:\\\xc0\xed\xe8\xec\xe5\\\xce\xed\xe3\xee\xe8\xed\xe3\xe8\\!_36_\xce\xf1\xe5\xed\xfc_2024\\DreamCast\\\xdd\xe9, \xd2\xee\xec\xe1\xee!\\\xd2\xc2-2\\[DC] Tonbo 2 - 09_Telegram.mp4" -lavfi "[0:v]settb=AVTB,setpts=PTS-STARTPTS,format=pix_fmts=yuv420p10,fps=24000/1001,scale=1920:1080:flags=bicubic[main];[1:v]settb=AVTB,setpts=PTS-STARTPTS,format=pix_fmts=yuv420p,fps=24000/1001,scale=1920:1080:flags=bicubic[ref];[main][ref]psnr=eof_action=endall:stats_file='D\\:/Convert/FFMetrics/logs/psnr_logfile-6.txt'" -f null -
Input #0, matroska,webm, from 'G:\Аниме\Онгоинги\!_36_Осень_2024\DreamCast\Эй, Томбо!\ТВ-2\[DC] Tonbo 2 - 09_Telegram_HEVC.mkv':
  Metadata:
    COMPATIBLE_BRANDS: isomiso2avc1mp41
    MAJOR_BRAND     : isom
    MINOR_VERSION   : 512
    ENCODER         : Lavf61.7.100
  Duration: 00:24:20.78, start: -0.021000, bitrate: 1599 kb/s
  Stream #0:0: Video: hevc (Main 10), yuv420p10le(tv, bt709, progressive), 1920x1080 [SAR 1:1 DAR 16:9], 23.98 fps, 23.98 tbr, 1k tbn (default)
      Metadata:
        HANDLER_NAME    : VideoHandler
        VENDOR_ID       : [0][0][0][0]
        ENCODER         : Lavc61.19.100 libx265
        BPS             : 1403090
        DURATION        : 00:24:19.666708333
        NUMBER_OF_FRAMES: 34997
        NUMBER_OF_BYTES : 256005489
        _STATISTICS_WRITING_APP: mkvpropedit v66.0.0 ('Josie') 64-bit
        _STATISTICS_WRITING_DATE_UTC: 2025-06-06 08:26:25
        _STATISTICS_TAGS: BPS DURATION NUMBER_OF_FRAMES NUMBER_OF_BYTES
  Stream #0:1: Audio: aac (LC), 48000 Hz, stereo, fltp (default)
      Metadata:
        HANDLER_NAME    : SoundHandler
        VENDOR_ID       : [0][0][0][0]
        ENCODER         : Lavc61.19.100 aac
        BPS             : 193197
        DURATION        : 00:24:20.778000000
        NUMBER_OF_FRAMES: 68475
        NUMBER_OF_BYTES : 35277374
        _STATISTICS_WRITING_APP: mkvpropedit v66.0.0 ('Josie') 64-bit
        _STATISTICS_WRITING_DATE_UTC: 2025-06-06 08:26:25
        _STATISTICS_TAGS: BPS DURATION NUMBER_OF_FRAMES NUMBER_OF_BYTES
Input #1, mov,mp4,m4a,3gp,3g2,mj2, from 'G:\Аниме\Онгоинги\!_36_Осень_2024\DreamCast\Эй, Томбо!\ТВ-2\[DC] Tonbo 2 - 09_Telegram.mp4':
  Metadata:
    major_brand     : isom
    minor_version   : 512
    compatible_brands: isomiso2avc1mp41
    encoder         : Lavf61.1.100
  Duration: 00:24:20.73, start: 0.000000, bitrate: 3859 kb/s
  Stream #1:0[0x1](und): Video: h264 (High) (avc1 / 0x31637661), yuv420p(tv, bt709, progressive), 1920x1080 [SAR 1:1 DAR 16:9], 3713 kb/s, 23.98 fps, 23.98 tbr, 24k tbn (default)
      Metadata:
        handler_name    : VideoHandler
        vendor_id       : [0][0][0][0]
        encoder         : Lavc61.3.100 h264_qsv
  Stream #1:1[0x2](und): Audio: aac (HE-AACv2) (mp4a / 0x6134706D), 48000 Hz, stereo, fltp, 144 kb/s (default)
      Metadata:
        handler_name    : SoundHandler
        vendor_id       : [0][0][0][0]
Stream mapping:
  Stream #0:0 (hevc) -> settb:default
  Stream #1:0 (h264) -> settb:default
  psnr:default -> Stream #0:0 (wrapped_avframe)
  Stream #0:1 -> #0:1 (aac (native) -> pcm_s16le (native))
Output #0, null, to 'pipe:':
  Metadata:
    COMPATIBLE_BRANDS: isomiso2avc1mp41
    MAJOR_BRAND     : isom
    MINOR_VERSION   : 512
    encoder         : Lavf61.7.100
  Stream #0:0: Video: wrapped_avframe, yuv420p10le(tv, bt709, progressive), 1920x1080 [SAR 1:1 DAR 16:9], q=2-31, 200 kb/s, 23.98 fps, 23.98 tbn
      Metadata:
        encoder         : Lavc61.19.100 wrapped_avframe
  Stream #0:1: Audio: pcm_s16le, 48000 Hz, stereo, s16, 1536 kb/s (default)
      Metadata:
        HANDLER_NAME    : SoundHandler
        VENDOR_ID       : [0][0][0][0]
        _STATISTICS_TAGS: BPS DURATION NUMBER_OF_FRAMES NUMBER_OF_BYTES
        BPS             : 193197
        DURATION        : 00:24:20.778000000
        NUMBER_OF_FRAMES: 68475
        NUMBER_OF_BYTES : 35277374
        _STATISTICS_WRITING_APP: mkvpropedit v66.0.0 ('Josie') 64-bit
        _STATISTICS_WRITING_DATE_UTC: 2025-06-06 08:26:25
        encoder         : Lavc61.19.100 pcm_s16le
frame=  162 fps=0.0 q=-0.0 size=N/A time=00:00:06.75 bitrate=N/A speed=13.2x    frame=  309 fps=302 q=-0.0 size=N/A time=00:00:12.88 bitrate=N/A speed=12.6x    frame=  539 fps=348 q=-0.0 size=N/A time=00:00:22.48 bitrate=N/A speed=14.5x    frame=  774 fps=376 q=-0.0 size=N/A time=00:00:32.28 bitrate=N/A speed=15.7x    frame= 1009 fps=393 q=-0.0 size=N/A time=00:00:42.08 bitrate=N/A speed=16.4x    frame= 1254 fps=406 q=-0.0 size=N/A time=00:00:52.30 bitrate=N/A speed=16.9x    frame= 1495 fps=415 q=-0.0 size=N/A time=00:01:02.35 bitrate=N/A speed=17.3x    frame= 1685 fps=409 q=-0.0 size=N/A time=00:01:10.27 bitrate=N/A speed=17.1x    frame= 1898 fps=409 q=-0.0 size=N/A time=00:01:19.16 bitrate=N/A speed=17.1x    frame= 2051 fps=398 q=-0.0 size=N/A time=00:01:25.54 bitrate=N/A speed=16.6x    frame= 2225 fps=393 q=-0.0 size=N/A time=00:01:32.80 bitrate=N/A speed=16.4x    frame= 2433 fps=394 q=-0.0 size=N/A time=00:01:41.47 bitrate=N/A speed=16.4x    frame= 2611 fps=390 q=-0.0 size=N/A time=00:01:48.90 bitrate=N/A speed=16.3x    frame= 2832 fps=393 q=-0.0 size=N/A time=00:01:58.11 bitrate=N/A speed=16.4x    frame= 3067 fps=396 q=-0.0 size=N/A time=00:02:07.91 bitrate=N/A speed=16.5x    frame= 3289 fps=399 q=-0.0 size=N/A time=00:02:17.17 bitrate=N/A speed=16.6x    frame= 3506 fps=400 q=-0.0 size=N/A time=00:02:26.22 bitrate=N/A speed=16.7x    frame= 3654 fps=394 q=-0.0 size=N/A time=00:02:32.40 bitrate=N/A speed=16.4x    frame= 3807 fps=389 q=-0.0 size=N/A time=00:02:38.78 bitrate=N/A speed=16.2x    frame= 3995 fps=388 q=-0.0 size=N/A time=00:02:46.62 bitrate=N/A speed=16.2x    frame= 4174 fps=386 q=-0.0 size=N/A time=00:02:54.09 bitrate=N/A speed=16.1x    frame= 4360 fps=385 q=-0.0 size=N/A time=00:03:01.84 bitrate=N/A speed=  16x    frame= 4615 fps=389 q=-0.0 size=N/A time=00:03:12.48 bitrate=N/A speed=16.2x    frame= 4830 fps=390 q=-0.0 size=N/A time=00:03:21.45 bitrate=N/A speed=16.3x    frame= 5061 fps=393 q=-0.0 size=N/A time=00:03:31.08 bitrate=N/A speed=16.4x    frame= 5266 fps=393 q=-0.0 size=N/A time=00:03:39.63 bitrate=N/A speed=16.4x    frame= 5464 fps=393 q=-0.0 size=N/A time=00:03:47.89 bitrate=N/A speed=16.4x    frame= 5681 fps=394 q=-0.0 size=N/A time=00:03:56.94 bitrate=N/A speed=16.4x    frame= 5890 fps=394 q=-0.0 size=N/A time=00:04:05.66 bitrate=N/A speed=16.4x    frame= 6129 fps=396 q=-0.0 size=N/A time=00:04:15.63 bitrate=N/A speed=16.5x    frame= 6332 fps=396 q=-0.0 size=N/A time=00:04:24.09 bitrate=N/A speed=16.5x    frame= 6532 fps=396 q=-0.0 size=N/A time=00:04:32.43 bitrate=N/A speed=16.5x    frame= 6759 fps=398 q=-0.0 size=N/A time=00:04:41.90 bitrate=N/A speed=16.6x    frame= 6929 fps=395 q=-0.0 size=N/A time=00:04:48.99 bitrate=N/A speed=16.5x    frame= 7144 fps=396 q=-0.0 size=N/A time=00:04:57.96 bitrate=N/A speed=16.5x    frame= 7319 fps=394 q=-0.0 size=N/A time=00:05:05.26 bitrate=N/A speed=16.5x    frame= 7556 fps=396 q=-0.0 size=N/A time=00:05:15.14 bitrate=N/A speed=16.5x    frame= 7800 fps=398 q=-0.0 size=N/A time=00:05:25.32 bitrate=N/A speed=16.6x    frame= 8009 fps=398 q=-0.0 size=N/A time=00:05:34.04 bitrate=N/A speed=16.6x    frame= 8214 fps=398 q=-0.0 size=N/A time=00:05:42.59 bitrate=N/A speed=16.6x    frame= 8378 fps=396 q=-0.0 size=N/A time=00:05:49.43 bitrate=N/A speed=16.5x    frame= 8574 fps=396 q=-0.0 size=N/A time=00:05:57.60 bitrate=N/A speed=16.5x    frame= 8724 fps=394 q=-0.0 size=N/A time=00:06:03.86 bitrate=N/A speed=16.4x    frame= 8931 fps=394 q=-0.0 size=N/A time=00:06:12.49 bitrate=N/A speed=16.4x    frame= 9198 fps=396 q=-0.0 size=N/A time=00:06:23.63 bitrate=N/A speed=16.5x    frame= 9399 fps=396 q=-0.0 size=N/A time=00:06:32.01 bitrate=N/A speed=16.5x    frame= 9656 fps=398 q=-0.0 size=N/A time=00:06:42.73 bitrate=N/A speed=16.6x    frame= 9871 fps=399 q=-0.0 size=N/A time=00:06:51.70 bitrate=N/A speed=16.6x    frame=10157 fps=402 q=-0.0 size=N/A time=00:07:03.63 bitrate=N/A speed=16.8x    frame=10436 fps=405 q=-0.0 size=N/A time=00:07:15.26 bitrate=N/A speed=16.9x    frame=10652 fps=405 q=-0.0 size=N/A time=00:07:24.27 bitrate=N/A speed=16.9x    frame=10917 fps=407 q=-0.0 size=N/A time=00:07:35.32 bitrate=N/A speed=  17x    frame=11186 fps=409 q=-0.0 size=N/A time=00:07:46.54 bitrate=N/A speed=17.1x    frame=11431 fps=410 q=-0.0 size=N/A time=00:07:56.76 bitrate=N/A speed=17.1x    frame=11615 fps=410 q=-0.0 size=N/A time=00:08:04.44 bitrate=N/A speed=17.1x    frame=11843 fps=410 q=-0.0 size=N/A time=00:08:13.95 bitrate=N/A speed=17.1x    frame=12043 fps=410 q=-0.0 size=N/A time=00:08:22.29 bitrate=N/A speed=17.1x    frame=12302 fps=411 q=-0.0 size=N/A time=00:08:33.09 bitrate=N/A speed=17.2x    frame=12561 fps=413 q=-0.0 size=N/A time=00:08:43.89 bitrate=N/A speed=17.2x    frame=12795 fps=413 q=-0.0 size=N/A time=00:08:53.65 bitrate=N/A speed=17.2x    frame=13064 fps=415 q=-0.0 size=N/A time=00:09:04.87 bitrate=N/A speed=17.3x    frame=13323 fps=417 q=-0.0 size=N/A time=00:09:15.68 bitrate=N/A speed=17.4x    frame=13582 fps=418 q=-0.0 size=N/A time=00:09:26.48 bitrate=N/A speed=17.4x    frame=13819 fps=419 q=-0.0 size=N/A time=00:09:36.36 bitrate=N/A speed=17.5x    frame=14009 fps=418 q=-0.0 size=N/A time=00:09:44.29 bitrate=N/A speed=17.4x    frame=14246 fps=419 q=-0.0 size=N/A time=00:09:54.17 bitrate=N/A speed=17.5x    frame=14478 fps=419 q=-0.0 size=N/A time=00:10:03.85 bitrate=N/A speed=17.5x    frame=14712 fps=419 q=-0.0 size=N/A time=00:10:13.61 bitrate=N/A speed=17.5x    frame=14917 fps=419 q=-0.0 size=N/A time=00:10:22.16 bitrate=N/A speed=17.5x    frame=15102 fps=418 q=-0.0 size=N/A time=00:10:29.87 bitrate=N/A speed=17.4x    frame=15309 fps=418 q=-0.0 size=N/A time=00:10:38.51 bitrate=N/A speed=17.4x    frame=15499 fps=417 q=-0.0 size=N/A time=00:10:46.43 bitrate=N/A speed=17.4x    frame=15755 fps=418 q=-0.0 size=N/A time=00:10:57.11 bitrate=N/A speed=17.5x    frame=16005 fps=419 q=-0.0 size=N/A time=00:11:07.54 bitrate=N/A speed=17.5x    frame=16243 fps=420 q=-0.0 size=N/A time=00:11:17.46 bitrate=N/A speed=17.5x    frame=16449 fps=420 q=-0.0 size=N/A time=00:11:26.06 bitrate=N/A speed=17.5x    frame=16620 fps=418 q=-0.0 size=N/A time=00:11:33.19 bitrate=N/A speed=17.5x    frame=16808 fps=418 q=-0.0 size=N/A time=00:11:41.03 bitrate=N/A speed=17.4x    frame=17036 fps=418 q=-0.0 size=N/A time=00:11:50.54 bitrate=N/A speed=17.4x    frame=17294 fps=419 q=-0.0 size=N/A time=00:12:01.30 bitrate=N/A speed=17.5x    frame=17579 fps=421 q=-0.0 size=N/A time=00:12:13.19 bitrate=N/A speed=17.6x    frame=17863 fps=422 q=-0.0 size=N/A time=00:12:25.03 bitrate=N/A speed=17.6x    frame=18126 fps=423 q=-0.0 size=N/A time=00:12:36.00 bitrate=N/A speed=17.7x    frame=18389 fps=424 q=-0.0 size=N/A time=00:12:46.97 bitrate=N/A speed=17.7x    frame=18659 fps=425 q=-0.0 size=N/A time=00:12:58.23 bitrate=N/A speed=17.7x    frame=18886 fps=426 q=-0.0 size=N/A time=00:13:07.70 bitrate=N/A speed=17.8x    frame=19142 fps=426 q=-0.0 size=N/A time=00:13:18.38 bitrate=N/A speed=17.8x    frame=19382 fps=427 q=-0.0 size=N/A time=00:13:28.39 bitrate=N/A speed=17.8x    frame=19659 fps=428 q=-0.0 size=N/A time=00:13:39.94 bitrate=N/A speed=17.9x    frame=19911 fps=429 q=-0.0 size=N/A time=00:13:50.45 bitrate=N/A speed=17.9x    frame=20173 fps=430 q=-0.0 size=N/A time=00:14:01.38 bitrate=N/A speed=17.9x    frame=20412 fps=430 q=-0.0 size=N/A time=00:14:11.35 bitrate=N/A speed=17.9x    frame=20632 fps=430 q=-0.0 size=N/A time=00:14:20.52 bitrate=N/A speed=17.9x    frame=20897 fps=431 q=-0.0 size=N/A time=00:14:31.57 bitrate=N/A speed=  18x    frame=21168 fps=432 q=-0.0 size=N/A time=00:14:42.88 bitrate=N/A speed=  18x    frame=21443 fps=433 q=-0.0 size=N/A time=00:14:54.35 bitrate=N/A speed=18.1x    frame=21720 fps=434 q=-0.0 size=N/A time=00:15:05.90 bitrate=N/A speed=18.1x    frame=21999 fps=435 q=-0.0 size=N/A time=00:15:17.54 bitrate=N/A speed=18.2x    frame=22288 fps=436 q=-0.0 size=N/A time=00:15:29.59 bitrate=N/A speed=18.2x    frame=22536 fps=437 q=-0.0 size=N/A time=00:15:39.93 bitrate=N/A speed=18.2x    frame=22794 fps=437 q=-0.0 size=N/A time=00:15:50.69 bitrate=N/A speed=18.2x    frame=23032 fps=438 q=-0.0 size=N/A time=00:16:00.62 bitrate=N/A speed=18.3x    frame=23264 fps=438 q=-0.0 size=N/A time=00:16:10.30 bitrate=N/A speed=18.3x    frame=23471 fps=437 q=-0.0 size=N/A time=00:16:18.93 bitrate=N/A speed=18.2x    frame=23719 fps=438 q=-0.0 size=N/A time=00:16:29.27 bitrate=N/A speed=18.3x    frame=23948 fps=438 q=-0.0 size=N/A time=00:16:38.83 bitrate=N/A speed=18.3x    frame=24188 fps=438 q=-0.0 size=N/A time=00:16:48.84 bitrate=N/A speed=18.3x    frame=24384 fps=438 q=-0.0 size=N/A time=00:16:57.01 bitrate=N/A speed=18.3x    frame=24592 fps=437 q=-0.0 size=N/A time=00:17:05.69 bitrate=N/A speed=18.2x    frame=24738 fps=436 q=-0.0 size=N/A time=00:17:11.78 bitrate=N/A speed=18.2x    frame=24874 fps=434 q=-0.0 size=N/A time=00:17:17.45 bitrate=N/A speed=18.1x    frame=25095 fps=434 q=-0.0 size=N/A time=00:17:26.67 bitrate=N/A speed=18.1x    frame=25315 fps=434 q=-0.0 size=N/A time=00:17:35.84 bitrate=N/A speed=18.1x    frame=25557 fps=435 q=-0.0 size=N/A time=00:17:45.93 bitrate=N/A speed=18.1x    frame=25797 fps=435 q=-0.0 size=N/A time=00:17:55.94 bitrate=N/A speed=18.1x    frame=26060 fps=435 q=-0.0 size=N/A time=00:18:06.91 bitrate=N/A speed=18.2x    frame=26211 fps=434 q=-0.0 size=N/A time=00:18:13.21 bitrate=N/A speed=18.1x    frame=26444 fps=434 q=-0.0 size=N/A time=00:18:22.93 bitrate=N/A speed=18.1x    frame=26634 fps=434 q=-0.0 size=N/A time=00:18:30.85 bitrate=N/A speed=18.1x    frame=26845 fps=434 q=-0.0 size=N/A time=00:18:39.66 bitrate=N/A speed=18.1x    frame=27076 fps=434 q=-0.0 size=N/A time=00:18:49.29 bitrate=N/A speed=18.1x    frame=27291 fps=434 q=-0.0 size=N/A time=00:18:58.26 bitrate=N/A speed=18.1x    frame=27517 fps=434 q=-0.0 size=N/A time=00:19:07.68 bitrate=N/A speed=18.1x    frame=27732 fps=434 q=-0.0 size=N/A time=00:19:16.65 bitrate=N/A speed=18.1x    frame=27960 fps=434 q=-0.0 size=N/A time=00:19:26.16 bitrate=N/A speed=18.1x    frame=28228 fps=434 q=-0.0 size=N/A time=00:19:37.34 bitrate=N/A speed=18.1x    frame=28501 fps=435 q=-0.0 size=N/A time=00:19:48.72 bitrate=N/A speed=18.1x    frame=28791 fps=436 q=-0.0 size=N/A time=00:20:00.82 bitrate=N/A speed=18.2x    frame=29026 fps=436 q=-0.0 size=N/A time=00:20:10.62 bitrate=N/A speed=18.2x    frame=29292 fps=437 q=-0.0 size=N/A time=00:20:21.72 bitrate=N/A speed=18.2x    frame=29538 fps=437 q=-0.0 size=N/A time=00:20:31.98 bitrate=N/A speed=18.2x    frame=29743 fps=437 q=-0.0 size=N/A time=00:20:40.53 bitrate=N/A speed=18.2x    frame=29971 fps=437 q=-0.0 size=N/A time=00:20:50.04 bitrate=N/A speed=18.2x    frame=30194 fps=437 q=-0.0 size=N/A time=00:20:59.34 bitrate=N/A speed=18.2x    frame=30406 fps=437 q=-0.0 size=N/A time=00:21:08.18 bitrate=N/A speed=18.2x    frame=30656 fps=437 q=-0.0 size=N/A time=00:21:18.61 bitrate=N/A speed=18.2x    frame=30874 fps=437 q=-0.0 size=N/A time=00:21:27.70 bitrate=N/A speed=18.2x    frame=31104 fps=437 q=-0.0 size=N/A time=00:21:37.29 bitrate=N/A speed=18.2x    frame=31350 fps=437 q=-0.0 size=N/A time=00:21:47.55 bitrate=N/A speed=18.2x    frame=31641 fps=438 q=-0.0 size=N/A time=00:21:59.69 bitrate=N/A speed=18.3x    frame=31878 fps=438 q=-0.0 size=N/A time=00:22:09.57 bitrate=N/A speed=18.3x    frame=32112 fps=438 q=-0.0 size=N/A time=00:22:19.33 bitrate=N/A speed=18.3x    frame=32331 fps=438 q=-0.0 size=N/A time=00:22:28.47 bitrate=N/A speed=18.3x    frame=32572 fps=439 q=-0.0 size=N/A time=00:22:38.52 bitrate=N/A speed=18.3x    frame=32792 fps=438 q=-0.0 size=N/A time=00:22:47.69 bitrate=N/A speed=18.3x    frame=33028 fps=439 q=-0.0 size=N/A time=00:22:57.54 bitrate=N/A speed=18.3x    frame=33251 fps=439 q=-0.0 size=N/A time=00:23:06.84 bitrate=N/A speed=18.3x    frame=33476 fps=438 q=-0.0 size=N/A time=00:23:16.22 bitrate=N/A speed=18.3x    frame=33659 fps=438 q=-0.0 size=N/A time=00:23:23.86 bitrate=N/A speed=18.3x    frame=33887 fps=438 q=-0.0 size=N/A time=00:23:33.37 bitrate=N/A speed=18.3x    frame=34126 fps=438 q=-0.0 size=N/A time=00:23:43.33 bitrate=N/A speed=18.3x    frame=34342 fps=438 q=-0.0 size=N/A time=00:23:52.34 bitrate=N/A speed=18.3x    frame=34546 fps=438 q=-0.0 size=N/A time=00:24:00.85 bitrate=N/A speed=18.3x    frame=34792 fps=438 q=-0.0 size=N/A time=00:24:11.11 bitrate=N/A speed=18.3x    [Parsed_psnr_10 @ 0000021455a26140] PSNR y:46.871506 u:49.305814 v:49.996253 average:47.613309 min:38.119506 max:inf
[out#0/null @ 00000214537c4200] video:15038KiB audio:273900KiB subtitle:0KiB other streams:0KiB global headers:0KiB muxing overhead: unknown
frame=34997 fps=438 q=-0.0 Lsize=N/A time=00:24:19.66 bitrate=N/A speed=18.3x    
